<?xml version="1.0" encoding="UTF-8" standalone="no"?>
<!DOCTYPE svg PUBLIC "-//W3C//DTD SVG 1.1//EN" "http://www.w3.org/Graphics/SVG/1.1/DTD/svg11.dtd">
<svg width="100%" height="100%" viewBox="0 0 39 19" version="1.1" xmlns="http://www.w3.org/2000/svg" xmlns:xlink="http://www.w3.org/1999/xlink" xml:space="preserve" xmlns:serif="http://www.serif.com/" style="fill-rule:evenodd;clip-rule:evenodd;stroke-linejoin:round;stroke-miterlimit:2;">
    <g transform="matrix(1,0,0,1,-945.691,-29.9766)">
        <g transform="matrix(0.892246,0,0,1.06874,102.164,-12.6759)">
            <g transform="matrix(1.10209,0,0,0.935683,-95.2377,20.5127)">
                <g transform="matrix(25,0,0,25,942.739,38.4782)">
                    <path d="M0.34,0L0.34,-0.07L0.242,-0.07L0.242,-0.628L0.34,-0.628L0.34,-0.698L0.06,-0.698L0.06,-0.628L0.158,-0.628L0.158,-0.07L0.06,-0.07L0.06,0L0.34,0Z" style="fill:white;fill-rule:nonzero;"/>
                </g>
                <g transform="matrix(25,0,0,25,952.739,38.4782)">
                    <path d="M0.289,0.012C0.439,0.012 0.529,-0.07 0.529,-0.198C0.529,-0.302 0.47,-0.362 0.334,-0.393L0.277,-0.406C0.189,-0.426 0.146,-0.456 0.146,-0.522C0.146,-0.597 0.201,-0.636 0.29,-0.636C0.371,-0.636 0.424,-0.603 0.462,-0.55L0.525,-0.596C0.473,-0.67 0.399,-0.71 0.294,-0.71C0.157,-0.71 0.063,-0.643 0.063,-0.519C0.063,-0.412 0.133,-0.356 0.26,-0.327L0.317,-0.314C0.409,-0.293 0.446,-0.26 0.446,-0.194C0.446,-0.114 0.392,-0.062 0.292,-0.062C0.211,-0.062 0.153,-0.097 0.104,-0.162L0.042,-0.11C0.098,-0.034 0.177,0.012 0.289,0.012Z" style="fill:white;fill-rule:nonzero;"/>
                </g>
                <g transform="matrix(25,0,0,25,967.264,38.4782)">
                    <path d="M0.354,0.012C0.534,0.012 0.65,-0.115 0.65,-0.349C0.65,-0.583 0.534,-0.71 0.354,-0.71C0.174,-0.71 0.058,-0.583 0.058,-0.349C0.058,-0.115 0.174,0.012 0.354,0.012ZM0.354,-0.063C0.233,-0.063 0.148,-0.153 0.148,-0.291L0.148,-0.407C0.148,-0.545 0.233,-0.635 0.354,-0.635C0.475,-0.635 0.56,-0.545 0.56,-0.407L0.56,-0.291C0.56,-0.153 0.475,-0.063 0.354,-0.063Z" style="fill:white;fill-rule:nonzero;"/>
                </g>
            </g>
        </g>
    </g>
</svg>
