<?xml version="1.0" encoding="UTF-8" standalone="no"?>
<svg
   xmlns:dc="http://purl.org/dc/elements/1.1/"
   xmlns:cc="http://creativecommons.org/ns#"
   xmlns:rdf="http://www.w3.org/1999/02/22-rdf-syntax-ns#"
   xmlns:svg="http://www.w3.org/2000/svg"
   xmlns="http://www.w3.org/2000/svg"
   xmlns:sodipodi="http://sodipodi.sourceforge.net/DTD/sodipodi-0.dtd"
   xmlns:inkscape="http://www.inkscape.org/namespaces/inkscape"
   width="48"
   height="48"
   viewBox="0 0 12.7 12.7"
   version="1.1"
   id="svg1188"
   sodipodi:docname="wb.svg"
   inkscape:version="1.0 (4035a4fb49, 2020-05-01)">
  <defs
     id="defs1182">
    <marker
       inkscape:stockid="Arrow2Send"
       orient="auto"
       refY="0.0"
       refX="0.0"
       id="Arrow2Send"
       style="overflow:visible;"
       inkscape:isstock="true">
      <path
         id="path868"
         style="fill-rule:evenodd;stroke-width:0.625;stroke-linejoin:round;stroke:#000000;stroke-opacity:1;fill:#000000;fill-opacity:1"
         d="M 8.7185878,4.0337352 L -2.2072895,0.016013256 L 8.7185884,-4.0017078 C 6.9730900,-1.6296469 6.9831476,1.6157441 8.7185878,4.0337352 z "
         transform="scale(0.3) rotate(180) translate(-2.3,0)" />
    </marker>
    <marker
       inkscape:stockid="Arrow1Send"
       orient="auto"
       refY="0.0"
       refX="0.0"
       id="Arrow1Send"
       style="overflow:visible;"
       inkscape:isstock="true">
      <path
         id="path850"
         d="M 0.0,0.0 L 5.0,-5.0 L -12.5,0.0 L 5.0,5.0 L 0.0,0.0 z "
         style="fill-rule:evenodd;stroke:#000000;stroke-width:1pt;stroke-opacity:1;fill:#000000;fill-opacity:1"
         transform="scale(0.2) rotate(180) translate(6,0)" />
    </marker>
    <marker
       inkscape:stockid="TriangleOutL"
       orient="auto"
       refY="0.0"
       refX="0.0"
       id="TriangleOutL"
       style="overflow:visible"
       inkscape:isstock="true">
      <path
         id="path977"
         d="M 5.77,0.0 L -2.88,5.0 L -2.88,-5.0 L 5.77,0.0 z "
         style="fill-rule:evenodd;stroke:#000000;stroke-width:1pt;stroke-opacity:1;fill:#000000;fill-opacity:1"
         transform="scale(0.8)" />
    </marker>
    <marker
       inkscape:stockid="TriangleOutM"
       orient="auto"
       refY="0.0"
       refX="0.0"
       id="TriangleOutM"
       style="overflow:visible"
       inkscape:isstock="true">
      <path
         id="path980"
         d="M 5.77,0.0 L -2.88,5.0 L -2.88,-5.0 L 5.77,0.0 z "
         style="fill-rule:evenodd;stroke:#000000;stroke-width:1pt;stroke-opacity:1;fill:#000000;fill-opacity:1"
         transform="scale(0.4)" />
    </marker>
    <marker
       inkscape:stockid="Arrow2Lend"
       orient="auto"
       refY="0.0"
       refX="0.0"
       id="marker1791"
       style="overflow:visible;"
       inkscape:isstock="true">
      <path
         id="path1789"
         style="fill-rule:evenodd;stroke-width:0.625;stroke-linejoin:round;stroke:#000000;stroke-opacity:1;fill:#000000;fill-opacity:1"
         d="M 8.7185878,4.0337352 L -2.2072895,0.016013256 L 8.7185884,-4.0017078 C 6.9730900,-1.6296469 6.9831476,1.6157441 8.7185878,4.0337352 z "
         transform="scale(1.1) rotate(180) translate(1,0)" />
    </marker>
    <marker
       inkscape:stockid="Arrow2Lend"
       orient="auto"
       refY="0.0"
       refX="0.0"
       id="Arrow2Lend"
       style="overflow:visible;"
       inkscape:isstock="true">
      <path
         id="path856"
         style="fill-rule:evenodd;stroke-width:0.625;stroke-linejoin:round;stroke:#000000;stroke-opacity:1;fill:#000000;fill-opacity:1"
         d="M 8.7185878,4.0337352 L -2.2072895,0.016013256 L 8.7185884,-4.0017078 C 6.9730900,-1.6296469 6.9831476,1.6157441 8.7185878,4.0337352 z "
         transform="scale(1.1) rotate(180) translate(1,0)" />
    </marker>
    <marker
       inkscape:stockid="Arrow1Lstart"
       orient="auto"
       refY="0.0"
       refX="0.0"
       id="Arrow1Lstart"
       style="overflow:visible"
       inkscape:isstock="true">
      <path
         id="path835"
         d="M 0.0,0.0 L 5.0,-5.0 L -12.5,0.0 L 5.0,5.0 L 0.0,0.0 z "
         style="fill-rule:evenodd;stroke:#000000;stroke-width:1pt;stroke-opacity:1;fill:#000000;fill-opacity:1"
         transform="scale(0.8) translate(12.5,0)" />
    </marker>
  </defs>
  <sodipodi:namedview
     id="base"
     pagecolor="#ffffff"
     bordercolor="#666666"
     borderopacity="1.0"
     inkscape:pageopacity="0.0"
     inkscape:pageshadow="2"
     inkscape:zoom="11.313709"
     inkscape:cx="31.973425"
     inkscape:cy="-7.3524864"
     inkscape:document-units="mm"
     inkscape:current-layer="g2017"
     inkscape:document-rotation="0"
     showgrid="false"
     units="px"
     inkscape:window-width="2560"
     inkscape:window-height="1387"
     inkscape:window-x="-8"
     inkscape:window-y="-8"
     inkscape:window-maximized="1"
     showguides="false" />
  <metadata
     id="metadata1185">
    <rdf:RDF>
      <cc:Work
         rdf:about="">
        <dc:format>image/svg+xml</dc:format>
        <dc:type
           rdf:resource="http://purl.org/dc/dcmitype/StillImage" />
        <dc:title />
      </cc:Work>
    </rdf:RDF>
  </metadata>
  <g
     inkscape:label="Layer 1"
     inkscape:groupmode="layer"
     id="layer1">
    <g
       id="g2017"
       style="opacity:1;stroke-width:1.24359;stroke-miterlimit:4;stroke-dasharray:none"
       transform="matrix(1.2496436,0,0,0.90557578,-1.5852369,1.6914606)">
      <path
         id="rect2542"
         style="fill:#000000;fill-opacity:1;stroke:none;stroke-width:1.24367;stroke-linecap:round;stroke-linejoin:round;stroke-miterlimit:4;stroke-dasharray:none;stroke-opacity:1"
         d="m 5.2913649,1.1805688 c -0.293242,0 -0.5293176,0.3257711 -0.5293176,0.7304285 v 2.9217139 c 0,0.4046574 0.2360756,0.7304285 0.5293176,0.7304285 h 2.1172703 c 0.2932419,0 0.5293175,-0.3257711 0.5293175,-0.7304285 V 1.9109973 c 0,-0.4046574 -0.2360756,-0.7304285 -0.5293175,-0.7304285 z M 5.5738053,2.057083 h 1.5523894 c 0.097747,0 0.1765769,0.1087807 0.1765769,0.2436662 v 2.14221 c 0,0.1348856 -0.07883,0.2436663 -0.1765769,0.2436663 H 5.5738053 c -0.097747,0 -0.1765769,-0.1087807 -0.1765769,-0.2436663 v -2.14221 c 0,-0.1348855 0.07883,-0.2436662 0.1765769,-0.2436662 z"
         sodipodi:nodetypes="ssssssssssssssssss" />
      <path
         id="path2582"
         style="color:#000000;font-style:normal;font-variant:normal;font-weight:normal;font-stretch:normal;font-size:medium;line-height:normal;font-family:sans-serif;font-variant-ligatures:normal;font-variant-position:normal;font-variant-caps:normal;font-variant-numeric:normal;font-variant-alternates:normal;font-variant-east-asian:normal;font-feature-settings:normal;font-variation-settings:normal;text-indent:0;text-align:start;text-decoration:none;text-decoration-line:none;text-decoration-style:solid;text-decoration-color:#000000;letter-spacing:normal;word-spacing:normal;text-transform:none;writing-mode:lr-tb;direction:ltr;text-orientation:mixed;dominant-baseline:auto;baseline-shift:baseline;text-anchor:start;white-space:normal;shape-padding:0;shape-margin:0;inline-size:0;clip-rule:nonzero;display:inline;overflow:visible;visibility:visible;opacity:1;isolation:auto;mix-blend-mode:normal;color-interpolation:sRGB;color-interpolation-filters:linearRGB;solid-color:#000000;solid-opacity:1;vector-effect:none;fill:#000000;fill-opacity:1;fill-rule:nonzero;stroke:none;stroke-width:0.746154;stroke-linecap:round;stroke-linejoin:round;stroke-miterlimit:4;stroke-dasharray:none;stroke-dashoffset:0;stroke-opacity:1;color-rendering:auto;image-rendering:auto;shape-rendering:auto;text-rendering:auto;enable-background:accumulate;stop-color:#000000;stop-opacity:1"
         d="m 2.6187057,5.0181716 c -0.021542,8.085e-4 -0.042762,0.00519 -0.063683,0.014266 -0.2009523,0.087156 -0.2278202,0.271693 -0.2278552,0.4776317 v 3.1202993 c 0,0.2067014 0.1718456,0.4776315 0.3837552,0.4776315 h 3.0477114 c 0.4493475,0 0.4369064,-0.4640709 0.2832675,-0.6265705 L 2.9921227,5.2555609 C 2.9281476,5.1883983 2.7694964,5.0125117 2.6187057,5.0181716 Z M 2.990055,6.0898469 c 0.079081,0.020658 0.155053,0.1031275 0.1885694,0.1375263 L 5.0428147,8.1544489 C 5.1367209,8.2515477 5.1441936,8.5293641 4.869546,8.5293641 H 3.0070097 c -0.1295223,0 -0.2348846,-0.1618127 -0.2348846,-0.2853238 V 6.3797359 c 2.14e-5,-0.1230553 0.016535,-0.233816 0.1393594,-0.2858944 0.025575,-0.010844 0.05221,-0.01088 0.07857,-0.00399 z" />
      <path
         d="m 10.081294,5.0181707 c 0.02154,8.181e-4 0.04276,0.00519 0.06368,0.014267 0.200952,0.087156 0.22782,0.2716928 0.227855,0.4776316 v 3.1202993 c 0,0.2067013 -0.171846,0.4776315 -0.3837557,0.4776315 H 6.941366 c -0.4493475,0 -0.4369064,-0.4640709 -0.2832675,-0.6265705 L 9.7078769,5.2555599 C 9.7718519,5.1883969 9.9305032,5.0125107 10.081294,5.0181707 Z M 9.7099445,6.0898459 C 9.6308635,6.1105049 9.5548915,6.1929734 9.5213751,6.2273722 L 7.6571847,8.154448 C 7.5632787,8.251547 7.5558058,8.5293632 7.8304535,8.5293632 h 1.8625363 c 0.1295223,0 0.2348847,-0.1618127 0.2348847,-0.2853238 V 6.3797349 c -2.14e-5,-0.1230553 -0.016535,-0.233816 -0.1393594,-0.2858944 -0.025575,-0.010845 -0.05221,-0.01088 -0.078571,-0.00399 z"
         style="color:#000000;font-style:normal;font-variant:normal;font-weight:normal;font-stretch:normal;font-size:medium;line-height:normal;font-family:sans-serif;font-variant-ligatures:normal;font-variant-position:normal;font-variant-caps:normal;font-variant-numeric:normal;font-variant-alternates:normal;font-variant-east-asian:normal;font-feature-settings:normal;font-variation-settings:normal;text-indent:0;text-align:start;text-decoration:none;text-decoration-line:none;text-decoration-style:solid;text-decoration-color:#000000;letter-spacing:normal;word-spacing:normal;text-transform:none;writing-mode:lr-tb;direction:ltr;text-orientation:mixed;dominant-baseline:auto;baseline-shift:baseline;text-anchor:start;white-space:normal;shape-padding:0;shape-margin:0;inline-size:0;clip-rule:nonzero;display:inline;overflow:visible;visibility:visible;opacity:1;isolation:auto;mix-blend-mode:normal;color-interpolation:sRGB;color-interpolation-filters:linearRGB;solid-color:#000000;solid-opacity:1;vector-effect:none;fill:#000000;fill-opacity:1;fill-rule:nonzero;stroke:none;stroke-width:0.746154;stroke-linecap:round;stroke-linejoin:round;stroke-miterlimit:4;stroke-dasharray:none;stroke-dashoffset:0;stroke-opacity:1;color-rendering:auto;image-rendering:auto;shape-rendering:auto;text-rendering:auto;enable-background:accumulate;stop-color:#000000;stop-opacity:1"
         id="path2582-1" />
    </g>
  </g>
</svg>
