<?xml version="1.0" encoding="UTF-8" standalone="no"?>
<svg
   xmlns:dc="http://purl.org/dc/elements/1.1/"
   xmlns:cc="http://creativecommons.org/ns#"
   xmlns:rdf="http://www.w3.org/1999/02/22-rdf-syntax-ns#"
   xmlns:svg="http://www.w3.org/2000/svg"
   xmlns="http://www.w3.org/2000/svg"
   xmlns:sodipodi="http://sodipodi.sourceforge.net/DTD/sodipodi-0.dtd"
   xmlns:inkscape="http://www.inkscape.org/namespaces/inkscape"
   inkscape:version="1.0 (4035a4fb49, 2020-05-01)"
   sodipodi:docname="wb-horizon.svg"
   id="svg1188"
   version="1.1"
   viewBox="0 0 12.7 12.7"
   height="48"
   width="48">
  <defs
     id="defs1182">
    <marker
       inkscape:isstock="true"
       style="overflow:visible;"
       id="Arrow2Send"
       refX="0.0"
       refY="0.0"
       orient="auto"
       inkscape:stockid="Arrow2Send">
      <path
         transform="scale(0.3) rotate(180) translate(-2.3,0)"
         d="M 8.7185878,4.0337352 L -2.2072895,0.016013256 L 8.7185884,-4.0017078 C 6.9730900,-1.6296469 6.9831476,1.6157441 8.7185878,4.0337352 z "
         style="fill-rule:evenodd;stroke-width:0.625;stroke-linejoin:round;stroke:#000000;stroke-opacity:1;fill:#000000;fill-opacity:1"
         id="path868" />
    </marker>
    <marker
       inkscape:isstock="true"
       style="overflow:visible;"
       id="Arrow1Send"
       refX="0.0"
       refY="0.0"
       orient="auto"
       inkscape:stockid="Arrow1Send">
      <path
         transform="scale(0.2) rotate(180) translate(6,0)"
         style="fill-rule:evenodd;stroke:#000000;stroke-width:1pt;stroke-opacity:1;fill:#000000;fill-opacity:1"
         d="M 0.0,0.0 L 5.0,-5.0 L -12.5,0.0 L 5.0,5.0 L 0.0,0.0 z "
         id="path850" />
    </marker>
    <marker
       inkscape:isstock="true"
       style="overflow:visible"
       id="TriangleOutL"
       refX="0.0"
       refY="0.0"
       orient="auto"
       inkscape:stockid="TriangleOutL">
      <path
         transform="scale(0.8)"
         style="fill-rule:evenodd;stroke:#000000;stroke-width:1pt;stroke-opacity:1;fill:#000000;fill-opacity:1"
         d="M 5.77,0.0 L -2.88,5.0 L -2.88,-5.0 L 5.77,0.0 z "
         id="path977" />
    </marker>
    <marker
       inkscape:isstock="true"
       style="overflow:visible"
       id="TriangleOutM"
       refX="0.0"
       refY="0.0"
       orient="auto"
       inkscape:stockid="TriangleOutM">
      <path
         transform="scale(0.4)"
         style="fill-rule:evenodd;stroke:#000000;stroke-width:1pt;stroke-opacity:1;fill:#000000;fill-opacity:1"
         d="M 5.77,0.0 L -2.88,5.0 L -2.88,-5.0 L 5.77,0.0 z "
         id="path980" />
    </marker>
    <marker
       inkscape:isstock="true"
       style="overflow:visible;"
       id="marker1791"
       refX="0.0"
       refY="0.0"
       orient="auto"
       inkscape:stockid="Arrow2Lend">
      <path
         transform="scale(1.1) rotate(180) translate(1,0)"
         d="M 8.7185878,4.0337352 L -2.2072895,0.016013256 L 8.7185884,-4.0017078 C 6.9730900,-1.6296469 6.9831476,1.6157441 8.7185878,4.0337352 z "
         style="fill-rule:evenodd;stroke-width:0.625;stroke-linejoin:round;stroke:#000000;stroke-opacity:1;fill:#000000;fill-opacity:1"
         id="path1789" />
    </marker>
    <marker
       inkscape:isstock="true"
       style="overflow:visible;"
       id="Arrow2Lend"
       refX="0.0"
       refY="0.0"
       orient="auto"
       inkscape:stockid="Arrow2Lend">
      <path
         transform="scale(1.1) rotate(180) translate(1,0)"
         d="M 8.7185878,4.0337352 L -2.2072895,0.016013256 L 8.7185884,-4.0017078 C 6.9730900,-1.6296469 6.9831476,1.6157441 8.7185878,4.0337352 z "
         style="fill-rule:evenodd;stroke-width:0.625;stroke-linejoin:round;stroke:#000000;stroke-opacity:1;fill:#000000;fill-opacity:1"
         id="path856" />
    </marker>
    <marker
       inkscape:isstock="true"
       style="overflow:visible"
       id="Arrow1Lstart"
       refX="0.0"
       refY="0.0"
       orient="auto"
       inkscape:stockid="Arrow1Lstart">
      <path
         transform="scale(0.8) translate(12.5,0)"
         style="fill-rule:evenodd;stroke:#000000;stroke-width:1pt;stroke-opacity:1;fill:#000000;fill-opacity:1"
         d="M 0.0,0.0 L 5.0,-5.0 L -12.5,0.0 L 5.0,5.0 L 0.0,0.0 z "
         id="path835" />
    </marker>
  </defs>
  <sodipodi:namedview
     inkscape:window-maximized="1"
     inkscape:window-y="-8"
     inkscape:window-x="-8"
     inkscape:window-height="1387"
     inkscape:window-width="2560"
     units="px"
     showgrid="false"
     inkscape:document-rotation="0"
     inkscape:current-layer="g2017"
     inkscape:document-units="mm"
     inkscape:cy="24.865347"
     inkscape:cx="45.435611"
     inkscape:zoom="12.46875"
     inkscape:pageshadow="2"
     inkscape:pageopacity="0.0"
     borderopacity="1.0"
     bordercolor="#666666"
     pagecolor="#ffffff"
     id="base" />
  <metadata
     id="metadata1185">
    <rdf:RDF>
      <cc:Work
         rdf:about="">
        <dc:format>image/svg+xml</dc:format>
        <dc:type
           rdf:resource="http://purl.org/dc/dcmitype/StillImage" />
        <dc:title />
      </cc:Work>
    </rdf:RDF>
  </metadata>
  <g
     id="layer1"
     inkscape:groupmode="layer"
     inkscape:label="Layer 1">
    <g
       transform="matrix(1.2496436,0,0,0.90557578,-1.5852369,1.6914606)"
       style="opacity:1;stroke-width:1.24359;stroke-miterlimit:4;stroke-dasharray:none"
       id="g2017">
      <path
         id="rect43"
         style="fill:#ffffff;stroke-width:0.240796"
         d="m 1.8752413,4.7836247 c -0.2202561,0 -0.2994891,0.2079956 -0.1776522,0.4663579 l 1.6714022,3.5443203 c 0.1218363,0.2583618 0.3972394,0.4663583 0.6174953,0.4663583 h 6.8382714 c 0.220256,0 0.299489,-0.2079965 0.177655,-0.4663583 L 9.3310077,5.2499826 C 9.2091718,4.9916203 8.9337684,4.7836247 8.7135131,4.7836247 Z M 2.457206,5.3432542 h 6.2021534 c 0.1321534,0 0.3012842,0.1330443 0.3792592,0.2983961 l 1.3020034,2.7609849 c 0.07798,0.1653518 0.03433,0.298396 -0.09783,0.298396 H 4.0406396 c -0.1321536,0 -0.3012842,-0.1330442 -0.3792597,-0.298396 L 2.3593769,5.6416503 C 2.2814016,5.4762985 2.3250527,5.3432542 2.457206,5.3432542 Z" />
      <path
         id="path942"
         style="fill:#ffffff;fill-opacity:1;stroke:none;stroke-width:1.05552;stroke-linecap:round;stroke-linejoin:round;stroke-miterlimit:4;stroke-dasharray:none;stroke-opacity:1;paint-order:normal"
         d="m 6.6610029,4.8084903 c 0,-1.2527748 -0.7359537,-2.2683495 -1.6437985,-2.2683495 -0.00414,-2.16e-5 -0.00828,-2.16e-5 -0.012414,0 -0.9029929,0.00941 -1.63141,1.0222342 -1.6313843,2.2683495 m 0.5479329,0 c -1.5e-6,-0.8340313 0.4893313,-1.5106044 1.0937253,-1.5122331 7.135e-4,-9e-7 0.00143,-9e-7 0.00214,0 0.6052298,2e-7 1.0958654,0.67705 1.0958654,1.5122331"
         sodipodi:nodetypes="cccccscc" />
      <path
         id="rect962"
         style="fill:#ffffff;fill-opacity:1;stroke:none;stroke-width:1.05552;stroke-linecap:round;stroke-linejoin:round;stroke-miterlimit:4;stroke-dasharray:none;stroke-opacity:1;paint-order:normal"
         d="m 5.0172046,1.0279077 c 0.1517774,0 0.2739664,0.168614 0.2739664,0.3780583 v 0.3024466 c 0,0.2094442 -0.122189,0.3780582 -0.2739664,0.3780582 -0.1517774,0 -0.2739665,-0.168614 -0.2739665,-0.3780582 V 1.405966 c 0,-0.2094443 0.1221891,-0.3780583 0.2739665,-0.3780583 z" />
      <path
         d="M 3.0589334,4.1600214 C 3.0196504,4.3623291 2.8700001,4.4815571 2.7233944,4.427349 L 2.5116894,4.3490701 C 2.3650837,4.2948618 2.278683,4.0883528 2.3179659,3.8860451 2.3572487,3.6837375 2.5068991,3.5645094 2.6535049,3.6187176 l 0.2117049,0.078279 c 0.1466057,0.054209 0.2330064,0.2607173 0.1937236,0.4630248 z"
         style="opacity:1;fill:#ffffff;fill-opacity:1;stroke:none;stroke-width:1.05552;stroke-linecap:round;stroke-linejoin:round;stroke-miterlimit:4;stroke-dasharray:none;stroke-opacity:1;paint-order:normal"
         id="rect962-7-3-2" />
      <path
         d="M 7.716443,3.8860451 C 7.7557266,4.0883528 7.6693235,4.2948618 7.5227195,4.34907 L 7.3110147,4.4273489 C 7.164409,4.4815571 7.0147586,4.3623291 6.9754757,4.1600214 6.9361928,3.9577138 7.0225935,3.7512047 7.1691994,3.6969965 l 0.2117049,-0.078279 c 0.1466058,-0.054208 0.2962558,0.06502 0.3355387,0.2673276 z"
         style="opacity:1;fill:#ffffff;fill-opacity:1;stroke:none;stroke-width:1.05552;stroke-linecap:round;stroke-linejoin:round;stroke-miterlimit:4;stroke-dasharray:none;stroke-opacity:1;paint-order:normal"
         id="rect962-78-4" />
      <path
         d="m 6.770735,1.8816145 c 0.118176,0.1314269 0.1366403,0.3685175 0.0414,0.531594 L 6.6746027,2.6486976 C 6.5793619,2.811774 6.4075497,2.8372536 6.2893737,2.7058266 6.1711977,2.5743997 6.1527336,2.3373087 6.2479745,2.1742322 L 6.3855062,1.9387432 C 6.4807471,1.7756667 6.652559,1.7501875 6.770735,1.8816145 Z"
         style="opacity:1;fill:#ffffff;fill-opacity:1;stroke:none;stroke-width:1.05552;stroke-linecap:round;stroke-linejoin:round;stroke-miterlimit:4;stroke-dasharray:none;stroke-opacity:1;paint-order:normal"
         id="rect962-78-79" />
      <path
         id="rect962-78-79-8"
         style="opacity:1;fill:#ffffff;fill-opacity:1;stroke:none;stroke-width:1.05552;stroke-linecap:round;stroke-linejoin:round;stroke-miterlimit:4;stroke-dasharray:none;stroke-opacity:1;paint-order:normal"
         d="m 3.2636741,1.8816145 c -0.118176,0.131427 -0.1366403,0.3685176 -0.0414,0.5315941 L 3.359806,2.6486976 C 3.455047,2.8117741 3.6268589,2.8372536 3.745035,2.7058266 3.863211,2.5743997 3.8816751,2.3373086 3.786434,2.1742322 L 3.648903,1.9387432 C 3.5536621,1.7756667 3.3818502,1.7501876 3.2636741,1.8816145 Z" />
    </g>
  </g>
</svg>
