<?xml version="1.0" encoding="UTF-8" standalone="no"?>
<svg
   xmlns:dc="http://purl.org/dc/elements/1.1/"
   xmlns:cc="http://creativecommons.org/ns#"
   xmlns:rdf="http://www.w3.org/1999/02/22-rdf-syntax-ns#"
   xmlns:svg="http://www.w3.org/2000/svg"
   xmlns="http://www.w3.org/2000/svg"
   xmlns:xlink="http://www.w3.org/1999/xlink"
   xmlns:sodipodi="http://sodipodi.sourceforge.net/DTD/sodipodi-0.dtd"
   xmlns:inkscape="http://www.inkscape.org/namespaces/inkscape"
   width="48"
   height="48"
   viewBox="0 0 12.7 12.7"
   version="1.1"
   id="svg1188"
   sodipodi:docname="wb-shade.svg"
   inkscape:version="1.0 (4035a4fb49, 2020-05-01)">
  <defs
     id="defs1182">
    <linearGradient
       inkscape:collect="always"
       id="linearGradient3607">
      <stop
         style="stop-color:#ffffff;stop-opacity:1"
         offset="0"
         id="stop3603" />
      <stop
         style="stop-color:#ffffff;stop-opacity:0"
         offset="1"
         id="stop3605" />
    </linearGradient>
    <marker
       inkscape:stockid="Arrow2Send"
       orient="auto"
       refY="0.0"
       refX="0.0"
       id="Arrow2Send"
       style="overflow:visible;"
       inkscape:isstock="true">
      <path
         id="path868"
         style="fill-rule:evenodd;stroke-width:0.625;stroke-linejoin:round;stroke:#000000;stroke-opacity:1;fill:#000000;fill-opacity:1"
         d="M 8.7185878,4.0337352 L -2.2072895,0.016013256 L 8.7185884,-4.0017078 C 6.9730900,-1.6296469 6.9831476,1.6157441 8.7185878,4.0337352 z "
         transform="scale(0.3) rotate(180) translate(-2.3,0)" />
    </marker>
    <marker
       inkscape:stockid="Arrow1Send"
       orient="auto"
       refY="0.0"
       refX="0.0"
       id="Arrow1Send"
       style="overflow:visible;"
       inkscape:isstock="true">
      <path
         id="path850"
         d="M 0.0,0.0 L 5.0,-5.0 L -12.5,0.0 L 5.0,5.0 L 0.0,0.0 z "
         style="fill-rule:evenodd;stroke:#000000;stroke-width:1pt;stroke-opacity:1;fill:#000000;fill-opacity:1"
         transform="scale(0.2) rotate(180) translate(6,0)" />
    </marker>
    <marker
       inkscape:stockid="TriangleOutL"
       orient="auto"
       refY="0.0"
       refX="0.0"
       id="TriangleOutL"
       style="overflow:visible"
       inkscape:isstock="true">
      <path
         id="path977"
         d="M 5.77,0.0 L -2.88,5.0 L -2.88,-5.0 L 5.77,0.0 z "
         style="fill-rule:evenodd;stroke:#000000;stroke-width:1pt;stroke-opacity:1;fill:#000000;fill-opacity:1"
         transform="scale(0.8)" />
    </marker>
    <marker
       inkscape:stockid="TriangleOutM"
       orient="auto"
       refY="0.0"
       refX="0.0"
       id="TriangleOutM"
       style="overflow:visible"
       inkscape:isstock="true">
      <path
         id="path980"
         d="M 5.77,0.0 L -2.88,5.0 L -2.88,-5.0 L 5.77,0.0 z "
         style="fill-rule:evenodd;stroke:#000000;stroke-width:1pt;stroke-opacity:1;fill:#000000;fill-opacity:1"
         transform="scale(0.4)" />
    </marker>
    <marker
       inkscape:stockid="Arrow2Lend"
       orient="auto"
       refY="0.0"
       refX="0.0"
       id="marker1791"
       style="overflow:visible;"
       inkscape:isstock="true">
      <path
         id="path1789"
         style="fill-rule:evenodd;stroke-width:0.625;stroke-linejoin:round;stroke:#000000;stroke-opacity:1;fill:#000000;fill-opacity:1"
         d="M 8.7185878,4.0337352 L -2.2072895,0.016013256 L 8.7185884,-4.0017078 C 6.9730900,-1.6296469 6.9831476,1.6157441 8.7185878,4.0337352 z "
         transform="scale(1.1) rotate(180) translate(1,0)" />
    </marker>
    <marker
       inkscape:stockid="Arrow2Lend"
       orient="auto"
       refY="0.0"
       refX="0.0"
       id="Arrow2Lend"
       style="overflow:visible;"
       inkscape:isstock="true">
      <path
         id="path856"
         style="fill-rule:evenodd;stroke-width:0.625;stroke-linejoin:round;stroke:#000000;stroke-opacity:1;fill:#000000;fill-opacity:1"
         d="M 8.7185878,4.0337352 L -2.2072895,0.016013256 L 8.7185884,-4.0017078 C 6.9730900,-1.6296469 6.9831476,1.6157441 8.7185878,4.0337352 z "
         transform="scale(1.1) rotate(180) translate(1,0)" />
    </marker>
    <marker
       inkscape:stockid="Arrow1Lstart"
       orient="auto"
       refY="0.0"
       refX="0.0"
       id="Arrow1Lstart"
       style="overflow:visible"
       inkscape:isstock="true">
      <path
         id="path835"
         d="M 0.0,0.0 L 5.0,-5.0 L -12.5,0.0 L 5.0,5.0 L 0.0,0.0 z "
         style="fill-rule:evenodd;stroke:#000000;stroke-width:1pt;stroke-opacity:1;fill:#000000;fill-opacity:1"
         transform="scale(0.8) translate(12.5,0)" />
    </marker>
    <linearGradient
       inkscape:collect="always"
       xlink:href="#linearGradient3607"
       id="linearGradient3609"
       x1="5.4236937"
       y1="6.9338346"
       x2="10.45221"
       y2="12.010311"
       gradientUnits="userSpaceOnUse" />
  </defs>
  <sodipodi:namedview
     id="base"
     pagecolor="#ffffff"
     bordercolor="#666666"
     borderopacity="1.0"
     inkscape:pageopacity="0.0"
     inkscape:pageshadow="2"
     inkscape:zoom="8.0000004"
     inkscape:cx="19.857277"
     inkscape:cy="6.8580947"
     inkscape:document-units="mm"
     inkscape:current-layer="g2017"
     inkscape:document-rotation="0"
     showgrid="false"
     units="px"
     inkscape:window-width="2560"
     inkscape:window-height="1387"
     inkscape:window-x="-8"
     inkscape:window-y="-8"
     inkscape:window-maximized="1"
     showguides="false"
     inkscape:snap-grids="false"
     inkscape:snap-to-guides="false"
     inkscape:snap-others="false"
     inkscape:object-nodes="false"
     inkscape:snap-nodes="false"
     inkscape:snap-global="false" />
  <metadata
     id="metadata1185">
    <rdf:RDF>
      <cc:Work
         rdf:about="">
        <dc:format>image/svg+xml</dc:format>
        <dc:type
           rdf:resource="http://purl.org/dc/dcmitype/StillImage" />
        <dc:title />
      </cc:Work>
    </rdf:RDF>
  </metadata>
  <g
     inkscape:label="Layer 1"
     inkscape:groupmode="layer"
     id="layer1">
    <g
       id="g2017"
       style="opacity:1;stroke-width:1.24359;stroke-miterlimit:4;stroke-dasharray:none"
       transform="matrix(1.2496436,0,0,0.90557578,-1.5852369,1.6914606)">
      <path
         id="path3572"
         style="opacity:1;fill:#ffffff;fill-opacity:1;stroke:none;stroke-width:0.746154;stroke-linecap:round;stroke-linejoin:round"
         inkscape:transform-center-y="-0.35731627"
         d="m 5.0892629,-1.0278261 c -0.042888,-5.013e-4 -0.086297,0.017639 -0.1301622,0.0640922 -0.018163,0.0103489 -0.036498,0.0204661 -0.05466,0.0308234 -0.4716177,0.79253184 -0.9412622,1.58696106 -1.4121219,2.38022355 -0.034138,0.1598254 -0.061794,0.3175064 0.067637,0.4202698 0.029232,0.1540172 0.3455523,-0.00888 0.2072371,0.15754 -0.2982012,0.4751606 -0.5964172,0.9505274 -0.8946187,1.425688 -0.037857,0.1585753 -0.06915,0.3151844 0.058199,0.4222268 0.1139913,0.1506016 0.3115865,0.05745 0.4624495,0.083663 0.1840968,-0.035762 -0.066151,0.1801991 -0.096344,0.2686009 -0.2823857,0.4293439 -0.5863911,0.8449228 -0.8552952,1.2828258 -0.055716,0.1602691 -0.051935,0.3045797 0.062919,0.4197804 0.1267766,0.1289882 0.3213045,0.04705 0.4769992,0.070453 h 1.5670579 c -3.252e-4,0.00928 -0.00236,0.018015 -0.00236,0.027398 v 0.5009968 c 0,0.3469402 0.2244924,0.6262459 0.5033461,0.6262459 0.2788537,0 0.5033461,-0.2793057 0.5033461,-0.6262459 v -0.500997 c 0,-0.00938 -0.00204,-0.018119 -0.00236,-0.027398 H 7.558414 C 7.6820538,5.9376652 7.8007239,5.8719053 7.7904224,5.6813229 7.8172388,5.480581 7.6363298,5.3509448 7.5568384,5.1959823 L 6.7192391,3.9567001 C 6.9052665,3.9380937 7.1090805,4.0149656 7.2713467,3.8686345 7.3679493,3.8002191 7.3918313,3.5724309 7.3264002,3.4547249 7.0124067,2.9509083 6.6957046,2.4493499 6.3806601,1.9463529 6.4987881,1.9701147 6.6277092,1.8918274 6.7054756,1.8010443 6.7443404,1.648557 6.7639481,1.4855579 6.6575005,1.3665862 6.2054836,0.60429621 5.7532357,-0.15789911 5.3012187,-0.92019006 5.2308639,-0.97515754 5.1607436,-1.0269908 5.0892629,-1.0278261 Z" />
      <path
         d="m 9.7061987,11.411721 c -0.033952,0.01766 -0.079441,0.02407 -0.1420487,0.01335 -0.020654,10e-4 -0.041283,0.0022 -0.061974,0.0032 C 8.6545814,11.133614 7.8074361,10.836926 6.9600154,10.541449 6.8377844,10.457344 6.7220048,10.371935 6.7643288,10.256619 6.6961667,10.150442 7.0455363,10.122188 6.8362508,10.076269 6.3157404,9.9058135 5.7950962,9.7352355 5.2745883,9.5647815 5.1501304,9.4829493 5.0320835,9.3996674 5.0701992,9.2825708 5.0717664,9.1442018 5.2849386,9.1213217 5.3898722,9.044241 5.5581662,8.991671 5.229957,8.9605963 5.1533235,8.9186638 4.67268,8.7698908 4.1829355,8.638284 3.7079646,8.4788016 3.5682327,8.4031535 3.4855115,8.3132209 3.5088004,8.1961809 3.5334216,8.065873 3.7374826,8.0373736 3.8479368,7.9600505 L 5.0995927,7.3260828 c -0.00577,-0.00556 -0.012583,-0.010077 -0.018166,-0.015828 L 4.7837513,7.0033329 C 4.577611,6.7907906 4.5909665,6.5288629 4.8136971,6.4160516 5.036427,6.3032402 5.3816913,6.3835292 5.5878315,6.5960717 l 0.2976754,0.3069199 c 0.00556,0.00574 0.00915,0.011934 0.0144,0.01774 L 7.5036633,6.108435 C 7.6384819,6.095598 7.7723403,6.087877 7.87735,6.2087989 8.0180434,6.3209277 7.95057,6.4735339 7.9791512,6.6006252 l 0.067327,1.0980607 c 0.1596432,-0.063858 0.276756,-0.1934105 0.4933129,-0.1694064 0.1178107,0.00284 0.2722292,0.1327179 0.2899043,0.2312973 0.048552,0.4356748 0.093602,0.8710633 0.1408299,1.3066616 0.080228,-0.062351 0.229731,-0.066534 0.3457686,-0.04239 0.1216414,0.077681 0.2341562,0.1696175 0.2198198,0.2855663 0.091884,0.6498598 0.1835301,1.2997543 0.2754172,1.9496153 -0.023535,0.06215 -0.048744,0.12226 -0.1053502,0.15168 z"
         inkscape:transform-center-y="0.096066442"
         style="opacity:1;fill:url(#linearGradient3609);fill-opacity:1;fill-rule:nonzero;stroke:none;stroke-width:0.746151;stroke-linecap:round;stroke-linejoin:round;stroke-miterlimit:4;stroke-dasharray:none"
         id="path3572-8"
         inkscape:transform-center-x="0.48937345" />
    </g>
  </g>
</svg>
