<?xml version="1.0" encoding="UTF-8" standalone="no"?>
<svg
   xmlns:dc="http://purl.org/dc/elements/1.1/"
   xmlns:cc="http://creativecommons.org/ns#"
   xmlns:rdf="http://www.w3.org/1999/02/22-rdf-syntax-ns#"
   xmlns:svg="http://www.w3.org/2000/svg"
   xmlns="http://www.w3.org/2000/svg"
   xmlns:sodipodi="http://sodipodi.sourceforge.net/DTD/sodipodi-0.dtd"
   xmlns:inkscape="http://www.inkscape.org/namespaces/inkscape"
   inkscape:version="1.0 (4035a4fb49, 2020-05-01)"
   sodipodi:docname="wb-sun.svg"
   id="svg1188"
   version="1.1"
   viewBox="0 0 12.7 12.7"
   height="48"
   width="48">
  <defs
     id="defs1182">
    <marker
       inkscape:isstock="true"
       style="overflow:visible;"
       id="Arrow2Send"
       refX="0.0"
       refY="0.0"
       orient="auto"
       inkscape:stockid="Arrow2Send">
      <path
         transform="scale(0.3) rotate(180) translate(-2.3,0)"
         d="M 8.7185878,4.0337352 L -2.2072895,0.016013256 L 8.7185884,-4.0017078 C 6.9730900,-1.6296469 6.9831476,1.6157441 8.7185878,4.0337352 z "
         style="fill-rule:evenodd;stroke-width:0.625;stroke-linejoin:round;stroke:#000000;stroke-opacity:1;fill:#000000;fill-opacity:1"
         id="path868" />
    </marker>
    <marker
       inkscape:isstock="true"
       style="overflow:visible;"
       id="Arrow1Send"
       refX="0.0"
       refY="0.0"
       orient="auto"
       inkscape:stockid="Arrow1Send">
      <path
         transform="scale(0.2) rotate(180) translate(6,0)"
         style="fill-rule:evenodd;stroke:#000000;stroke-width:1pt;stroke-opacity:1;fill:#000000;fill-opacity:1"
         d="M 0.0,0.0 L 5.0,-5.0 L -12.5,0.0 L 5.0,5.0 L 0.0,0.0 z "
         id="path850" />
    </marker>
    <marker
       inkscape:isstock="true"
       style="overflow:visible"
       id="TriangleOutL"
       refX="0.0"
       refY="0.0"
       orient="auto"
       inkscape:stockid="TriangleOutL">
      <path
         transform="scale(0.8)"
         style="fill-rule:evenodd;stroke:#000000;stroke-width:1pt;stroke-opacity:1;fill:#000000;fill-opacity:1"
         d="M 5.77,0.0 L -2.88,5.0 L -2.88,-5.0 L 5.77,0.0 z "
         id="path977" />
    </marker>
    <marker
       inkscape:isstock="true"
       style="overflow:visible"
       id="TriangleOutM"
       refX="0.0"
       refY="0.0"
       orient="auto"
       inkscape:stockid="TriangleOutM">
      <path
         transform="scale(0.4)"
         style="fill-rule:evenodd;stroke:#000000;stroke-width:1pt;stroke-opacity:1;fill:#000000;fill-opacity:1"
         d="M 5.77,0.0 L -2.88,5.0 L -2.88,-5.0 L 5.77,0.0 z "
         id="path980" />
    </marker>
    <marker
       inkscape:isstock="true"
       style="overflow:visible;"
       id="marker1791"
       refX="0.0"
       refY="0.0"
       orient="auto"
       inkscape:stockid="Arrow2Lend">
      <path
         transform="scale(1.1) rotate(180) translate(1,0)"
         d="M 8.7185878,4.0337352 L -2.2072895,0.016013256 L 8.7185884,-4.0017078 C 6.9730900,-1.6296469 6.9831476,1.6157441 8.7185878,4.0337352 z "
         style="fill-rule:evenodd;stroke-width:0.625;stroke-linejoin:round;stroke:#000000;stroke-opacity:1;fill:#000000;fill-opacity:1"
         id="path1789" />
    </marker>
    <marker
       inkscape:isstock="true"
       style="overflow:visible;"
       id="Arrow2Lend"
       refX="0.0"
       refY="0.0"
       orient="auto"
       inkscape:stockid="Arrow2Lend">
      <path
         transform="scale(1.1) rotate(180) translate(1,0)"
         d="M 8.7185878,4.0337352 L -2.2072895,0.016013256 L 8.7185884,-4.0017078 C 6.9730900,-1.6296469 6.9831476,1.6157441 8.7185878,4.0337352 z "
         style="fill-rule:evenodd;stroke-width:0.625;stroke-linejoin:round;stroke:#000000;stroke-opacity:1;fill:#000000;fill-opacity:1"
         id="path856" />
    </marker>
    <marker
       inkscape:isstock="true"
       style="overflow:visible"
       id="Arrow1Lstart"
       refX="0.0"
       refY="0.0"
       orient="auto"
       inkscape:stockid="Arrow1Lstart">
      <path
         transform="scale(0.8) translate(12.5,0)"
         style="fill-rule:evenodd;stroke:#000000;stroke-width:1pt;stroke-opacity:1;fill:#000000;fill-opacity:1"
         d="M 0.0,0.0 L 5.0,-5.0 L -12.5,0.0 L 5.0,5.0 L 0.0,0.0 z "
         id="path835" />
    </marker>
  </defs>
  <sodipodi:namedview
     inkscape:window-maximized="1"
     inkscape:window-y="-8"
     inkscape:window-x="-8"
     inkscape:window-height="1387"
     inkscape:window-width="2560"
     units="px"
     showgrid="false"
     inkscape:document-rotation="0"
     inkscape:current-layer="g2017"
     inkscape:document-units="mm"
     inkscape:cy="13.471334"
     inkscape:cx="8.6454501"
     inkscape:zoom="8.8167377"
     inkscape:pageshadow="2"
     inkscape:pageopacity="0.0"
     borderopacity="1.0"
     bordercolor="#666666"
     pagecolor="#ffffff"
     id="base" />
  <metadata
     id="metadata1185">
    <rdf:RDF>
      <cc:Work
         rdf:about="">
        <dc:format>image/svg+xml</dc:format>
        <dc:type
           rdf:resource="http://purl.org/dc/dcmitype/StillImage" />
        <dc:title></dc:title>
      </cc:Work>
    </rdf:RDF>
  </metadata>
  <g
     id="layer1"
     inkscape:groupmode="layer"
     inkscape:label="Layer 1">
    <g
       transform="matrix(1.2496436,0,0,0.90557578,-1.5852369,1.6914606)"
       style="opacity:1;stroke-width:1.24359;stroke-miterlimit:4;stroke-dasharray:none"
       id="g2017">
      <path
         id="path942"
         style="fill:#000000;fill-opacity:1;stroke:none;stroke-width:1.05552;stroke-linecap:round;stroke-linejoin:round;stroke-miterlimit:4;stroke-dasharray:none;stroke-opacity:1;paint-order:normal"
         d="M 6.3296425,1.4465711 A 2.6956211,3.7198055 0 0 0 3.6543788,5.1663766 2.6956211,3.7198055 0 0 0 6.35,8.8861821 2.6956211,3.7198055 0 0 0 9.0456211,5.1663766 2.6956211,3.7198055 0 0 0 6.35,1.4465711 a 2.6956211,3.7198055 0 0 0 -0.020357,0 z m 0.016848,1.2399351 a 1.7970806,2.4798703 0 0 1 0.00351,0 A 1.7970806,2.4798703 0 0 1 8.1470807,5.1663766 1.7970806,2.4798703 0 0 1 6.35,7.6462469 1.7970806,2.4798703 0 0 1 4.5529192,5.1663766 1.7970806,2.4798703 0 0 1 6.3464905,2.6865062 Z" />
      <path
         id="rect962"
         style="fill:#000000;fill-opacity:1;stroke:none;stroke-width:1.05552;stroke-linecap:round;stroke-linejoin:round;stroke-miterlimit:4;stroke-dasharray:none;stroke-opacity:1;paint-order:normal"
         d="m 6.3500003,-1.0332993 c 0.2488957,0 0.4492702,0.27650551 0.4492702,0.61996755 v 0.49597407 c 0,0.34346204 -0.2003745,0.61996758 -0.4492702,0.61996758 -0.2488957,0 -0.4492702,-0.27650554 -0.4492702,-0.61996758 v -0.49597407 c 0,-0.34346204 0.2003745,-0.61996755 0.4492702,-0.61996755 z" />
      <path
         id="rect962-7"
         style="opacity:1;fill:#000000;fill-opacity:1;stroke:none;stroke-width:1.05552;stroke-linecap:round;stroke-linejoin:round;stroke-miterlimit:4;stroke-dasharray:none;stroke-opacity:1;paint-order:normal"
         d="m 6.3500003,9.87813 c 0.2488957,0 0.4492702,0.276505 0.4492702,0.619968 v 0.495974 c 0,0.343462 -0.2003745,0.619967 -0.4492702,0.619967 -0.2488957,0 -0.4492702,-0.276505 -0.4492702,-0.619967 v -0.495974 c 0,-0.343463 0.2003745,-0.619968 0.4492702,-0.619968 z" />
      <path
         id="rect962-78"
         style="opacity:1;fill:#000000;fill-opacity:1;stroke:none;stroke-width:1.05552;stroke-linecap:round;stroke-linejoin:round;stroke-miterlimit:4;stroke-dasharray:none;stroke-opacity:1;paint-order:normal"
         transform="rotate(90)"
         d="m 5.2903696,-10.932556 c 0.3434621,0 0.6199676,0.200374 0.6199676,0.44927 v 0.359416 c 0,0.2488958 -0.2765055,0.4492704 -0.6199676,0.4492704 -0.343462,0 -0.6199675,-0.2003746 -0.6199675,-0.4492704 v -0.359416 c 0,-0.248896 0.2765055,-0.44927 0.6199675,-0.44927 z" />
      <path
         id="rect962-7-3"
         style="opacity:1;fill:#000000;fill-opacity:1;stroke:none;stroke-width:1.05552;stroke-linecap:round;stroke-linejoin:round;stroke-miterlimit:4;stroke-dasharray:none;stroke-opacity:1;paint-order:normal"
         transform="rotate(90)"
         d="m 5.2903696,-3.0254009 c 0.3434621,0 0.6199676,0.2003745 0.6199676,0.4492702 v 0.3594161 c 0,0.2488957 -0.2765055,0.4492702 -0.6199676,0.4492702 -0.343462,0 -0.6199675,-0.2003745 -0.6199675,-0.4492702 v -0.3594161 c 0,-0.2488957 0.2765055,-0.4492702 0.6199675,-0.4492702 z" />
      <path
         id="rect962-0"
         style="opacity:1;fill:#000000;fill-opacity:1;stroke:none;stroke-width:1.07616;stroke-linecap:round;stroke-linejoin:round;stroke-miterlimit:4;stroke-dasharray:none;stroke-opacity:1;paint-order:normal"
         transform="matrix(0.78212211,-0.62312519,0.3859671,0.92251255,0,0)"
         d="m 3.9666879,2.4776413 c 0.2755963,0 0.4974663,0.2595746 0.4974663,0.5820058 v 0.4656047 c 0,0.3224312 -0.22187,0.5820058 -0.4974663,0.5820058 -0.2755963,0 -0.4974663,-0.2595746 -0.4974663,-0.5820058 V 3.0596471 c 0,-0.3224312 0.22187,-0.5820058 0.4974663,-0.5820058 z" />
      <path
         id="rect962-7-2"
         style="opacity:1;fill:#000000;fill-opacity:1;stroke:none;stroke-width:1.07616;stroke-linecap:round;stroke-linejoin:round;stroke-miterlimit:4;stroke-dasharray:none;stroke-opacity:1;paint-order:normal"
         transform="matrix(0.78212211,-0.62312519,0.3859671,0.92251255,0,0)"
         d="m 3.9666879,12.720943 c 0.2755963,0 0.4974663,0.259575 0.4974663,0.582006 v 0.465605 c 0,0.322431 -0.22187,0.582006 -0.4974663,0.582006 -0.2755963,0 -0.4974663,-0.259575 -0.4974663,-0.582006 v -0.465605 c 0,-0.322431 0.22187,-0.582006 0.4974663,-0.582006 z" />
      <path
         id="rect962-78-7"
         style="opacity:1;fill:#000000;fill-opacity:1;stroke:none;stroke-width:1.07616;stroke-linecap:round;stroke-linejoin:round;stroke-miterlimit:4;stroke-dasharray:none;stroke-opacity:1;paint-order:normal"
         transform="matrix(0.3859671,0.92251255,-0.78212211,0.62312519,0,0)"
         d="m 8.4141,-9.0408459 c 0.3224312,0 0.5820058,0.22187 0.5820058,0.4974663 v 0.397973 c 0,0.2755964 -0.2595746,0.4974663 -0.5820058,0.4974663 -0.3224312,0 -0.5820058,-0.2218699 -0.5820058,-0.4974663 v -0.397973 c 0,-0.2755963 0.2595746,-0.4974663 0.5820058,-0.4974663 z" />
      <path
         id="rect962-7-3-1"
         style="opacity:1;fill:#000000;fill-opacity:1;stroke:none;stroke-width:1.07616;stroke-linecap:round;stroke-linejoin:round;stroke-miterlimit:4;stroke-dasharray:none;stroke-opacity:1;paint-order:normal"
         transform="matrix(0.3859671,0.92251255,-0.78212211,0.62312519,0,0)"
         d="m 8.4141,-0.28543723 c 0.3224312,0 0.5820058,0.22186997 0.5820058,0.4974663 v 0.397973 c 0,0.27559633 -0.2595746,0.49746633 -0.5820058,0.49746633 -0.3224312,0 -0.5820058,-0.22187 -0.5820058,-0.49746633 v -0.397973 c 0,-0.27559633 0.2595746,-0.4974663 0.5820058,-0.4974663 z" />
      <path
         id="rect962-3"
         style="opacity:1;fill:#000000;fill-opacity:1;stroke:none;stroke-width:1.07616;stroke-linecap:round;stroke-linejoin:round;stroke-miterlimit:4;stroke-dasharray:none;stroke-opacity:1;paint-order:normal"
         transform="matrix(0.3859671,-0.92251255,0.78212211,0.62312519,0,0)"
         d="m -0.18801063,3.137562 c 0.32243121,0 0.5820058,0.22187 0.5820058,0.4974663 v 0.397973 c 0,0.2755964 -0.25957459,0.4974663 -0.5820058,0.4974663 -0.32243122,0 -0.5820058,-0.2218699 -0.5820058,-0.4974663 v -0.397973 c 0,-0.2755963 0.25957458,-0.4974663 0.5820058,-0.4974663 z" />
      <path
         id="rect962-7-9"
         style="opacity:1;fill:#000000;fill-opacity:1;stroke:none;stroke-width:1.07616;stroke-linecap:round;stroke-linejoin:round;stroke-miterlimit:4;stroke-dasharray:none;stroke-opacity:1;paint-order:normal"
         transform="matrix(0.3859671,-0.92251255,0.78212211,0.62312519,0,0)"
         d="m -0.18801063,11.892968 c 0.32243121,0 0.5820058,0.22187 0.5820058,0.497466 v 0.397973 c 0,0.275597 -0.25957459,0.497467 -0.5820058,0.497467 -0.32243122,0 -0.5820058,-0.22187 -0.5820058,-0.497467 v -0.397973 c 0,-0.275596 0.25957458,-0.497466 0.5820058,-0.497466 z" />
      <path
         id="rect962-78-2"
         style="opacity:1;fill:#000000;fill-opacity:1;stroke:none;stroke-width:1.07616;stroke-linecap:round;stroke-linejoin:round;stroke-miterlimit:4;stroke-dasharray:none;stroke-opacity:1;paint-order:normal"
         transform="matrix(0.78212211,0.62312519,-0.3859671,0.92251255,0,0)"
         d="m 8.2117178,-5.7484503 c 0.2755963,0 0.4974663,0.2595746 0.4974663,0.5820058 v 0.4656047 c 0,0.3224312 -0.22187,0.5820058 -0.4974663,0.5820058 -0.2755963,0 -0.4974663,-0.2595746 -0.4974663,-0.5820058 v -0.4656047 c 0,-0.3224312 0.22187,-0.5820058 0.4974663,-0.5820058 z" />
      <path
         id="rect962-7-3-5"
         style="opacity:1;fill:#000000;fill-opacity:1;stroke:none;stroke-width:1.07616;stroke-linecap:round;stroke-linejoin:round;stroke-miterlimit:4;stroke-dasharray:none;stroke-opacity:1;paint-order:normal"
         transform="matrix(0.78212211,0.62312519,-0.3859671,0.92251255,0,0)"
         d="m 8.2117178,4.4948535 c 0.2755963,0 0.4974663,0.2595746 0.4974663,0.5820058 V 5.542464 c 0,0.3224312 -0.22187,0.5820058 -0.4974663,0.5820058 -0.2755963,0 -0.4974663,-0.2595746 -0.4974663,-0.5820058 V 5.0768593 c 0,-0.3224312 0.22187,-0.5820058 0.4974663,-0.5820058 z" />
    </g>
  </g>
</svg>
