<?xml version="1.0" encoding="UTF-8" standalone="no"?>
<!DOCTYPE svg PUBLIC "-//W3C//DTD SVG 1.1//EN" "http://www.w3.org/Graphics/SVG/1.1/DTD/svg11.dtd">
<svg width="100%" height="100%" viewBox="0 0 35 23" version="1.1" xmlns="http://www.w3.org/2000/svg" xmlns:xlink="http://www.w3.org/1999/xlink" xml:space="preserve" xmlns:serif="http://www.serif.com/" style="fill-rule:evenodd;clip-rule:evenodd;stroke-linecap:round;stroke-linejoin:round;stroke-miterlimit:1.5;">
    <g transform="matrix(1,0,0,1,-947.554,-268.655)">
        <g transform="matrix(0.892246,0,0,1.06874,102.164,228.324)">
            <g transform="matrix(0.992126,0,0,0.842324,16.6498,-186.871)">
                <path d="M947.308,290.431C947.068,290.456 946.824,290.469 946.577,290.469C942.746,290.469 939.636,287.359 939.636,283.528C939.636,279.697 942.746,276.586 946.577,276.586C947.278,276.586 947.954,276.69 948.591,276.883C948.54,276.524 948.513,276.158 948.513,275.784C948.513,271.511 951.983,268.041 956.257,268.041C960.53,268.041 964,271.511 964,275.784C964,276.145 963.975,276.499 963.928,276.847C964.528,276.677 965.161,276.586 965.816,276.586C969.647,276.586 972.757,279.697 972.757,283.528L972.78,283.528C974.685,283.54 976.228,285.09 976.228,286.999C976.228,288.914 974.673,290.469 972.757,290.469C972.628,290.469 972.501,290.462 972.376,290.448L972.376,290.469L947.308,290.469L947.308,290.431Z" style="fill:white;stroke:white;stroke-width:2.8px;"/>
            </g>
        </g>
    </g>
</svg>
